<svg xmlns="http://www.w3.org/2000/svg" viewBox="0 0 242 484" width="242" height="484">
	<g id="iPhone Vertical">
		<path id="Base" fill="#f2f2f2" d="M29 1L190 1C204.91 1 217 13.09 217 28L217 432C217 446.91 204.91 459 190 459L29 459C14.09 459 2 446.91 2 432L2 28C2 13.09 14.09 1 29 1Z" />
		<rect id="screen" x="14.5" y="64.5" rx="3" ry="3" width="191" height="336" fill="none" stroke-width="3" stroke="#c6c6c6" />
		<path id="Speaker" fill="#acacac" d="M94.5 37L125.5 37C126.88 37 128 38.12 128 39.5C128 40.88 126.88 42 125.5 42L94.5 42C93.12 42 92 40.88 92 39.5C92 38.12 93.12 37 94.5 37Z" />
		<g id="Home Button">
			<path id="Circle" fill="#fafafa" d="M109.19 408.81C120.75 408.81 130.12 418.15 130.12 429.68C130.12 441.21 120.75 450.56 109.19 450.56C97.63 450.56 88.26 441.21 88.26 429.68C88.26 418.15 97.63 408.81 109.19 408.81Z" />
			<path id="Square" fill-rule="evenodd" fill="#bababa" d="M104.88 421.5L113.7 421.5C115.75 421.5 117.42 423.16 117.42 425.21L117.42 434C117.42 436.05 115.75 437.72 113.7 437.72L104.88 437.72C102.82 437.72 101.16 436.05 101.16 434L101.16 425.21C101.16 423.16 102.82 421.5 104.88 421.5ZM102.87 426.14L102.87 433.06C102.87 434.67 104.18 435.98 105.8 435.98L112.75 435.98C114.36 435.98 115.67 434.67 115.67 433.06L115.67 426.14C115.67 424.52 114.36 423.21 112.75 423.21L105.8 423.21C104.18 423.21 102.87 424.52 102.87 426.14Z" />
		</g>
		<g id="Cam">
			<path id="Outer Circle" fill="#d8d8d8" d="M109.27 17.51C111.72 17.51 113.7 19.49 113.7 21.93C113.7 24.37 111.72 26.34 109.27 26.34C106.82 26.34 104.84 24.37 104.84 21.93C104.84 19.49 106.82 17.51 109.27 17.51Z" />
			<path id="Red Dot" fill="#eb5055" d="M109.27 19.96C110.36 19.96 111.24 20.84 111.24 21.93C111.24 23.01 110.36 23.89 109.27 23.89C108.18 23.89 107.3 23.01 107.3 21.93C107.3 20.84 108.18 19.96 109.27 19.96Z" />
		</g>
	</g>
</svg>